<svg xmlns="http://www.w3.org/2000/svg" xmlns:xlink="http://www.w3.org/1999/xlink" width="500" zoomAndPan="magnify" viewBox="0 0 375 374.999991" height="500" preserveAspectRatio="xMidYMid meet" version="1.0"><defs><clipPath id="id1"><path d="M 44.476562 44.476562 L 330.226562 44.476562 L 330.226562 330.226562 L 44.476562 330.226562 Z M 44.476562 44.476562 " clip-rule="nonzero"/></clipPath><clipPath id="id2"><path d="M 127 236 L 156 236 L 156 263.230469 L 127 263.230469 Z M 127 236 " clip-rule="nonzero"/></clipPath><clipPath id="id3"><path d="M 219 236 L 248 236 L 248 263.230469 L 219 263.230469 Z M 219 236 " clip-rule="nonzero"/></clipPath></defs><g clip-path="url(#id1)"><path stroke-linecap="butt" transform="matrix(4.564696, 0, 0, 4.564696, -100.225631, -30.614009)" fill="none" stroke-linejoin="miter" d="M 65.465714 18.261917 C 83.352652 35.898119 83.352652 59.575078 65.465714 77.208713 M 40.013069 66.451904 C 53.766722 56.638991 72.232148 56.638991 85.986658 66.451904 M 61.046608 17.978663 C 43.035586 35.736382 43.035586 59.577645 61.046608 77.335364 M 62.847111 18.010325 C 46.452606 18.094189 33.231231 31.451629 33.31595 47.846135 C 33.398958 64.242352 46.75811 77.462015 63.152615 77.379007 C 79.546265 77.294288 92.769351 63.936848 92.683776 47.542342 C 92.600768 31.266787 79.428171 18.094189 63.152615 18.010325 Z M 63.000291 18.010325 L 63.000291 77.379007 M 92.684632 47.693811 L 33.315094 47.693811 M 40.013069 29.834257 C 53.766722 39.646315 72.232148 39.646315 85.986658 29.834257 " stroke="#000000" stroke-width="3.045" stroke-opacity="1" stroke-miterlimit="4"/></g><path fill="#545454" d="M 146.421875 167.601562 L 126.882812 150.191406 C 124.71875 148.324219 124.515625 145.023438 126.414062 142.863281 C 128.28125 140.699219 131.582031 140.496094 133.742188 142.394531 L 151.4375 158.140625 L 146.421875 167.601562 " fill-opacity="1" fill-rule="nonzero"/><path fill="#545454" d="M 223.527344 158.140625 L 241.222656 142.394531 C 243.382812 140.496094 246.683594 140.699219 248.550781 142.863281 C 250.449219 145.023438 250.246094 148.324219 248.082031 150.191406 L 228.542969 167.601562 L 223.527344 158.140625 " fill-opacity="1" fill-rule="nonzero"/><g clip-path="url(#id2)"><path fill="#545454" d="M 149.671875 236.363281 L 129.480469 254.136719 C 127.328125 256.003906 127.113281 259.304688 129.011719 261.464844 C 130.027344 262.632812 131.460938 263.230469 132.910156 263.230469 C 134.128906 263.230469 135.355469 262.816406 136.34375 261.933594 L 155.234375 245.304688 L 149.671875 236.363281 " fill-opacity="1" fill-rule="nonzero"/></g><g clip-path="url(#id3)"><path fill="#545454" d="M 219.730469 245.304688 L 238.621094 261.933594 C 239.605469 262.816406 240.835938 263.230469 242.054688 263.230469 C 243.503906 263.230469 244.9375 262.632812 245.953125 261.464844 C 247.847656 259.304688 247.644531 256.003906 245.484375 254.136719 L 225.292969 236.363281 L 219.730469 245.304688 " fill-opacity="1" fill-rule="nonzero"/></g><path fill="#545454" d="M 148.503906 193.070312 L 117.320312 193.070312 C 114.457031 193.070312 112.121094 190.722656 112.121094 187.871094 C 112.121094 185.019531 114.457031 182.675781 117.320312 182.675781 L 148.503906 182.675781 L 148.503906 193.070312 " fill-opacity="1" fill-rule="nonzero"/><path fill="#545454" d="M 226.460938 193.070312 L 257.644531 193.070312 C 260.496094 193.070312 262.84375 190.722656 262.84375 187.871094 C 262.84375 185.019531 260.496094 182.675781 257.644531 182.675781 L 226.460938 182.675781 L 226.460938 193.070312 " fill-opacity="1" fill-rule="nonzero"/><path fill="#545454" d="M 148.503906 213.859375 L 117.320312 213.859375 C 114.457031 213.859375 112.121094 216.203125 112.121094 219.054688 C 112.121094 221.90625 114.457031 224.253906 117.320312 224.253906 L 148.835938 224.253906 L 148.503906 213.859375 " fill-opacity="1" fill-rule="nonzero"/><path fill="#545454" d="M 226.460938 213.859375 L 257.644531 213.859375 C 260.496094 213.859375 262.84375 216.203125 262.84375 219.054688 C 262.84375 221.90625 260.496094 224.253906 257.644531 224.253906 L 226.148438 224.253906 L 226.460938 213.859375 " fill-opacity="1" fill-rule="nonzero"/><path fill="#545454" d="M 194.476562 130.882812 L 203.074219 115.355469 C 204.375 112.804688 207.488281 111.761719 210.066406 113.089844 C 212.605469 114.390625 213.621094 117.507812 212.320312 120.074219 L 204.292969 134.5 L 194.476562 130.882812 " fill-opacity="1" fill-rule="nonzero"/><path fill="#545454" d="M 170.671875 134.5 L 162.644531 120.074219 C 161.34375 117.507812 162.359375 114.390625 164.894531 113.089844 C 167.476562 111.761719 170.589844 112.804688 171.890625 115.355469 L 180.488281 130.882812 L 170.671875 134.5 " fill-opacity="1" fill-rule="nonzero"/><path fill="#7ed957" d="M 158.925781 153.003906 C 159.597656 140.527344 171.757812 130.703125 183.503906 130.703125 L 191.460938 130.703125 C 203.207031 130.703125 215.367188 140.527344 216.035156 153.003906 L 158.925781 153.003906 " fill-opacity="1" fill-rule="nonzero"/><path fill="#008037" d="M 187.480469 260.632812 C 164.519531 260.632812 145.902344 242.015625 145.902344 219.054688 L 145.902344 172.28125 C 145.902344 160.800781 155.210938 151.492188 166.691406 151.492188 L 208.269531 151.492188 C 219.75 151.492188 229.058594 160.800781 229.058594 172.28125 L 229.058594 219.054688 C 229.058594 242.015625 210.445312 260.632812 187.480469 260.632812 " fill-opacity="1" fill-rule="nonzero"/><path fill="#545454" d="M 190.082031 174.878906 L 190.082031 151.492188 L 184.882812 151.492188 L 184.882812 174.878906 L 145.902344 174.878906 L 145.902344 180.074219 L 229.058594 180.074219 L 229.058594 174.878906 L 190.082031 174.878906 " fill-opacity="1" fill-rule="nonzero"/><path fill="#004aad" d="M 171.890625 232.046875 C 171.21875 232.046875 170.558594 231.792969 170.054688 231.289062 L 157.058594 218.292969 C 156.042969 217.277344 156.042969 215.632812 157.058594 214.621094 L 170.054688 201.625 C 171.066406 200.609375 172.710938 200.609375 173.726562 201.625 C 174.742188 202.640625 174.742188 204.285156 173.726562 205.300781 L 162.570312 216.457031 L 173.726562 227.613281 C 174.742188 228.628906 174.742188 230.273438 173.726562 231.289062 C 173.21875 231.792969 172.558594 232.046875 171.890625 232.046875 " fill-opacity="1" fill-rule="nonzero"/><path fill="#004aad" d="M 203.074219 232.046875 C 202.402344 232.046875 201.742188 231.792969 201.238281 231.289062 C 200.222656 230.273438 200.222656 228.628906 201.238281 227.613281 L 212.390625 216.457031 L 201.238281 205.300781 C 200.222656 204.285156 200.222656 202.640625 201.238281 201.625 C 202.25 200.609375 203.894531 200.609375 204.910156 201.625 L 217.902344 214.621094 C 218.917969 215.632812 218.917969 217.277344 217.902344 218.292969 L 204.910156 231.289062 C 204.402344 231.792969 203.742188 232.046875 203.074219 232.046875 " fill-opacity="1" fill-rule="nonzero"/><path fill="#004aad" d="M 182.285156 237.246094 C 182.050781 237.246094 181.808594 237.214844 181.574219 237.144531 C 180.195312 236.75 179.390625 235.316406 179.789062 233.9375 L 190.183594 197.554688 C 190.578125 196.175781 192.019531 195.382812 193.390625 195.769531 C 194.769531 196.164062 195.574219 197.597656 195.175781 198.976562 L 184.78125 235.359375 C 184.457031 236.503906 183.410156 237.246094 182.285156 237.246094 " fill-opacity="1" fill-rule="nonzero"/></svg>