<svg xmlns="http://www.w3.org/2000/svg" xmlns:xlink="http://www.w3.org/1999/xlink" width="500" zoomAndPan="magnify" viewBox="0 0 375 374.999991" height="500" preserveAspectRatio="xMidYMid meet" version="1.0"><defs><clipPath id="id1"><path d="M 106 254 L 144 254 L 144 290.625 L 106 290.625 Z M 106 254 " clip-rule="nonzero"/></clipPath><clipPath id="id2"><path d="M 231 254 L 269 254 L 269 290.625 L 231 290.625 Z M 231 254 " clip-rule="nonzero"/></clipPath><clipPath id="id3"><path d="M 84.375 180 L 135 180 L 135 196 L 84.375 196 Z M 84.375 180 " clip-rule="nonzero"/></clipPath><clipPath id="id4"><path d="M 240 180 L 290.625 180 L 290.625 196 L 240 196 Z M 240 180 " clip-rule="nonzero"/></clipPath><clipPath id="id5"><path d="M 84.375 223 L 135 223 L 135 238 L 84.375 238 Z M 84.375 223 " clip-rule="nonzero"/></clipPath><clipPath id="id6"><path d="M 240 223 L 290.625 223 L 290.625 238 L 240 238 Z M 240 223 " clip-rule="nonzero"/></clipPath></defs><path stroke-linecap="butt" transform="matrix(5.990415, 0, 0, 5.990415, -189.89616, -98.542333)" fill="none" stroke-linejoin="miter" d="M 65.466182 18.262141 C 83.352829 35.897736 83.352829 59.574883 65.466182 77.209174 M 40.01276 66.451754 C 53.767154 56.639204 72.232199 56.639204 85.987246 66.451754 M 61.047013 17.979137 C 43.035818 35.736019 43.035818 59.578143 61.047013 77.335026 M 62.846763 18.009785 C 46.452735 18.093903 33.231093 31.451831 33.315863 47.845859 C 33.398678 64.241844 46.75791 77.462182 63.153242 77.378715 C 79.545966 77.293944 92.768913 63.937321 92.684142 47.541988 C 92.600675 31.267292 79.427939 18.093903 63.153242 18.009785 Z M 63.000003 18.009785 L 63.000003 77.378715 M 92.684794 47.693924 L 33.315211 47.693924 M 40.01276 29.834012 C 53.767154 39.645911 72.232199 39.645911 85.987246 29.834012 " stroke="#000000" stroke-width="3.045" stroke-opacity="1" stroke-miterlimit="4"/><path fill="#545454" d="M 131.601562 160.433594 L 105 136.734375 C 102.054688 134.191406 101.777344 129.699219 104.363281 126.757812 C 106.90625 123.8125 111.398438 123.535156 114.339844 126.121094 L 138.429688 147.554688 L 131.601562 160.433594 " fill-opacity="1" fill-rule="nonzero"/><path fill="#545454" d="M 236.574219 147.554688 L 260.660156 126.121094 C 263.601562 123.535156 268.09375 123.8125 270.636719 126.757812 C 273.222656 129.699219 272.945312 134.191406 270 136.734375 L 243.398438 160.433594 L 236.574219 147.554688 " fill-opacity="1" fill-rule="nonzero"/><g clip-path="url(#id1)"><path fill="#545454" d="M 136.023438 254.046875 L 108.535156 278.242188 C 105.605469 280.785156 105.316406 285.277344 107.902344 288.21875 C 109.28125 289.808594 111.230469 290.625 113.207031 290.625 C 114.867188 290.625 116.539062 290.058594 117.878906 288.855469 L 143.597656 266.21875 L 136.023438 254.046875 " fill-opacity="1" fill-rule="nonzero"/></g><g clip-path="url(#id2)"><path fill="#545454" d="M 231.402344 266.21875 L 257.121094 288.855469 C 258.460938 290.058594 260.132812 290.625 261.792969 290.625 C 263.769531 290.625 265.71875 289.808594 267.097656 288.21875 C 269.683594 285.277344 269.40625 280.785156 266.464844 278.242188 L 238.976562 254.046875 L 231.402344 266.21875 " fill-opacity="1" fill-rule="nonzero"/></g><g clip-path="url(#id3)"><path fill="#545454" d="M 134.433594 195.105469 L 91.980469 195.105469 C 88.085938 195.105469 84.90625 191.914062 84.90625 188.03125 C 84.90625 184.148438 88.085938 180.957031 91.980469 180.957031 L 134.433594 180.957031 L 134.433594 195.105469 " fill-opacity="1" fill-rule="nonzero"/></g><g clip-path="url(#id4)"><path fill="#545454" d="M 240.566406 195.105469 L 283.019531 195.105469 C 286.902344 195.105469 290.09375 191.914062 290.09375 188.03125 C 290.09375 184.148438 286.902344 180.957031 283.019531 180.957031 L 240.566406 180.957031 L 240.566406 195.105469 " fill-opacity="1" fill-rule="nonzero"/></g><g clip-path="url(#id5)"><path fill="#545454" d="M 134.433594 223.40625 L 91.980469 223.40625 C 88.085938 223.40625 84.90625 226.601562 84.90625 230.484375 C 84.90625 234.367188 88.085938 237.558594 91.980469 237.558594 L 134.890625 237.558594 L 134.433594 223.40625 " fill-opacity="1" fill-rule="nonzero"/></g><g clip-path="url(#id6)"><path fill="#545454" d="M 240.566406 223.40625 L 283.019531 223.40625 C 286.902344 223.40625 290.09375 226.601562 290.09375 230.484375 C 290.09375 234.367188 286.902344 237.558594 283.019531 237.558594 L 240.136719 237.558594 L 240.566406 223.40625 " fill-opacity="1" fill-rule="nonzero"/></g><path fill="#545454" d="M 197.023438 110.449219 L 208.726562 89.304688 C 210.496094 85.835938 214.738281 84.414062 218.246094 86.222656 C 221.703125 87.992188 223.085938 92.234375 221.316406 95.730469 L 210.382812 115.367188 L 197.023438 110.449219 " fill-opacity="1" fill-rule="nonzero"/><path fill="#545454" d="M 164.617188 115.367188 L 153.683594 95.730469 C 151.914062 92.234375 153.296875 87.992188 156.753906 86.222656 C 160.261719 84.414062 164.503906 85.835938 166.273438 89.304688 L 177.980469 110.449219 L 164.617188 115.367188 " fill-opacity="1" fill-rule="nonzero"/><path fill="#7ed957" d="M 148.625 140.5625 C 149.539062 123.578125 166.09375 110.199219 182.082031 110.199219 L 192.917969 110.199219 C 208.90625 110.199219 225.460938 123.578125 226.375 140.5625 L 148.625 140.5625 " fill-opacity="1" fill-rule="nonzero"/><path fill="#008037" d="M 187.5 287.085938 C 156.242188 287.085938 130.894531 261.742188 130.894531 230.484375 L 130.894531 166.804688 C 130.894531 151.175781 143.570312 138.503906 159.199219 138.503906 L 215.800781 138.503906 C 231.429688 138.503906 244.105469 151.175781 244.105469 166.804688 L 244.105469 230.484375 C 244.105469 261.742188 218.757812 287.085938 187.5 287.085938 " fill-opacity="1" fill-rule="nonzero"/><path fill="#545454" d="M 191.039062 170.34375 L 191.039062 138.503906 L 183.960938 138.503906 L 183.960938 170.34375 L 130.894531 170.34375 L 130.894531 177.417969 L 244.105469 177.417969 L 244.105469 170.34375 L 191.039062 170.34375 " fill-opacity="1" fill-rule="nonzero"/><path fill="#004aad" d="M 166.273438 248.171875 C 165.363281 248.171875 164.464844 247.828125 163.773438 247.136719 L 146.082031 229.445312 C 144.703125 228.066406 144.703125 225.828125 146.082031 224.445312 L 163.773438 206.753906 C 165.152344 205.375 167.394531 205.375 168.773438 206.753906 C 170.15625 208.136719 170.15625 210.375 168.773438 211.757812 L 153.585938 226.945312 L 168.773438 242.132812 C 170.15625 243.515625 170.15625 245.753906 168.773438 247.136719 C 168.082031 247.828125 167.1875 248.171875 166.273438 248.171875 " fill-opacity="1" fill-rule="nonzero"/><path fill="#004aad" d="M 208.726562 248.171875 C 207.8125 248.171875 206.917969 247.828125 206.226562 247.136719 C 204.84375 245.753906 204.84375 243.515625 206.226562 242.132812 L 221.414062 226.945312 L 206.226562 211.757812 C 204.84375 210.375 204.84375 208.136719 206.226562 206.753906 C 207.605469 205.375 209.847656 205.375 211.226562 206.753906 L 228.917969 224.445312 C 230.296875 225.828125 230.296875 228.066406 228.917969 229.445312 L 211.226562 247.136719 C 210.535156 247.828125 209.636719 248.171875 208.726562 248.171875 " fill-opacity="1" fill-rule="nonzero"/><path fill="#004aad" d="M 180.425781 255.246094 C 180.105469 255.246094 179.773438 255.207031 179.457031 255.109375 C 177.578125 254.570312 176.484375 252.621094 177.023438 250.742188 L 191.175781 201.214844 C 191.714844 199.335938 193.675781 198.257812 195.542969 198.78125 C 197.421875 199.320312 198.515625 201.269531 197.976562 203.148438 L 183.824219 252.675781 C 183.382812 254.238281 181.957031 255.246094 180.425781 255.246094 " fill-opacity="1" fill-rule="nonzero"/></svg>