<svg xmlns="http://www.w3.org/2000/svg" xmlns:xlink="http://www.w3.org/1999/xlink" width="500" zoomAndPan="magnify" viewBox="0 0 375 374.999991" height="500" preserveAspectRatio="xMidYMid meet" version="1.0"><defs><filter x="0%" y="0%" width="100%" height="100%" id="id1"><feColorMatrix values="0 0 0 0 1 0 0 0 0 1 0 0 0 0 1 0 0 0 1 0" color-interpolation-filters="sRGB"/></filter><mask id="id2"><g filter="url(#id1)"><rect x="-37.5" width="450" fill="#000000" y="-37.499999" height="449.999989" fill-opacity="0.9098"/></g></mask><clipPath id="id3"><path d="M 1.90625 0.238281 L 328.90625 0.238281 L 328.90625 374.640625 L 1.90625 374.640625 Z M 1.90625 0.238281 " clip-rule="nonzero"/></clipPath><clipPath id="id4"><rect x="0" width="331" y="0" height="375"/></clipPath></defs><g mask="url(#id2)"><g transform="matrix(1, 0, 0, 1, 22, 0)"><g clip-path="url(#id4)"><g clip-path="url(#id3)"><path fill="#ffffff" d="M 159.527344 2.027344 L 83.699219 45.832031 L 7.875 89.628906 C 7.675781 89.742188 7.523438 89.898438 7.339844 90.023438 C 6.980469 90.25 6.636719 90.488281 6.304688 90.757812 C 6.007812 91.007812 5.730469 91.273438 5.464844 91.542969 C 5.199219 91.804688 4.949219 92.066406 4.710938 92.355469 C 4.429688 92.699219 4.179688 93.054688 3.941406 93.421875 C 3.824219 93.605469 3.675781 93.75 3.570312 93.9375 C 3.507812 94.046875 3.476562 94.164062 3.417969 94.277344 C 3.214844 94.660156 3.046875 95.058594 2.882812 95.460938 C 2.753906 95.789062 2.613281 96.117188 2.515625 96.457031 C 2.402344 96.824219 2.332031 97.199219 2.257812 97.578125 C 2.1875 97.949219 2.113281 98.320312 2.070312 98.691406 C 2.035156 99.066406 2.042969 99.441406 2.042969 99.820312 C 2.042969 100.195312 2.035156 100.570312 2.070312 100.941406 C 2.113281 101.324219 2.1875 101.691406 2.257812 102.066406 C 2.332031 102.445312 2.402344 102.820312 2.515625 103.1875 C 2.613281 103.519531 2.753906 103.851562 2.886719 104.1875 C 3.046875 104.582031 3.214844 104.972656 3.417969 105.359375 C 3.476562 105.472656 3.507812 105.589844 3.570312 105.699219 C 3.683594 105.890625 3.835938 106.042969 3.949219 106.226562 C 4.183594 106.585938 4.429688 106.9375 4.703125 107.277344 C 4.945312 107.570312 5.207031 107.835938 5.46875 108.105469 C 5.738281 108.371094 6.007812 108.632812 6.304688 108.878906 C 6.636719 109.152344 6.980469 109.386719 7.34375 109.621094 C 7.523438 109.742188 7.683594 109.894531 7.875 110.003906 L 77.824219 150.410156 L 77.824219 231.222656 C 77.824219 231.351562 77.859375 231.46875 77.859375 231.597656 C 77.871094 232.035156 77.929688 232.464844 77.988281 232.894531 C 78.039062 233.246094 78.085938 233.589844 78.160156 233.929688 C 78.25 234.308594 78.382812 234.675781 78.511719 235.050781 C 78.632812 235.402344 78.746094 235.753906 78.898438 236.085938 C 79.054688 236.441406 79.253906 236.769531 79.453125 237.109375 C 79.632812 237.425781 79.808594 237.738281 80.019531 238.039062 C 80.246094 238.351562 80.507812 238.644531 80.765625 238.9375 C 81.011719 239.21875 81.25 239.5 81.519531 239.753906 C 81.78125 240.007812 82.074219 240.230469 82.359375 240.449219 C 82.691406 240.714844 83.027344 240.964844 83.386719 241.191406 C 83.5 241.257812 83.585938 241.351562 83.699219 241.414062 L 159.527344 285.21875 C 163.164062 287.316406 167.644531 287.316406 171.28125 285.21875 L 247.109375 241.414062 C 250.882812 239.242188 252.988281 235.28125 252.988281 231.210938 C 252.988281 229.21875 252.480469 227.199219 251.40625 225.347656 C 248.160156 219.71875 240.972656 217.792969 235.347656 221.039062 L 165.402344 261.445312 L 101.339844 224.433594 L 101.339844 150.414062 L 165.402344 113.40625 L 235.347656 153.808594 C 240.972656 157.054688 248.160156 155.132812 251.40625 149.503906 C 252.480469 147.652344 252.988281 145.628906 252.988281 143.632812 C 252.988281 139.566406 250.882812 135.609375 247.109375 133.429688 L 171.28125 89.628906 C 167.644531 87.53125 163.164062 87.53125 159.527344 89.628906 L 89.578125 130.035156 L 37.265625 99.820312 L 95.457031 66.207031 L 165.402344 25.796875 L 235.347656 66.207031 L 305.296875 106.609375 L 305.296875 268.238281 L 235.347656 308.644531 L 165.402344 349.054688 L 95.457031 308.644531 L 25.511719 268.238281 L 25.511719 187.425781 C 25.511719 180.929688 20.242188 175.65625 13.757812 175.65625 C 7.261719 175.65625 1.996094 180.929688 1.996094 187.425781 L 1.996094 275.03125 C 1.996094 275.15625 2.03125 275.273438 2.035156 275.398438 C 2.046875 275.839844 2.101562 276.269531 2.164062 276.699219 C 2.214844 277.050781 2.257812 277.394531 2.339844 277.730469 C 2.425781 278.113281 2.554688 278.484375 2.683594 278.855469 C 2.804688 279.207031 2.921875 279.558594 3.070312 279.890625 C 3.234375 280.242188 3.429688 280.574219 3.625 280.914062 C 3.8125 281.230469 3.984375 281.542969 4.195312 281.84375 C 4.417969 282.15625 4.679688 282.445312 4.9375 282.742188 C 5.183594 283.023438 5.421875 283.304688 5.695312 283.558594 C 5.960938 283.8125 6.246094 284.027344 6.539062 284.253906 C 6.871094 284.519531 7.203125 284.769531 7.566406 284.996094 C 7.671875 285.0625 7.765625 285.15625 7.875 285.21875 L 83.699219 329.019531 L 159.527344 372.824219 C 163.164062 374.925781 167.644531 374.925781 171.28125 372.824219 L 247.109375 329.019531 L 322.929688 285.21875 C 323.089844 285.132812 323.21875 285.019531 323.363281 284.925781 C 323.53125 284.824219 323.691406 284.71875 323.847656 284.605469 C 324.367188 284.238281 324.859375 283.839844 325.300781 283.402344 C 325.332031 283.378906 325.355469 283.363281 325.382812 283.332031 C 325.867188 282.847656 326.289062 282.316406 326.679688 281.761719 C 326.769531 281.632812 326.851562 281.503906 326.929688 281.375 C 327.253906 280.871094 327.539062 280.351562 327.777344 279.808594 C 327.824219 279.714844 327.871094 279.632812 327.914062 279.539062 C 328.167969 278.921875 328.355469 278.277344 328.507812 277.625 C 328.542969 277.460938 328.574219 277.296875 328.601562 277.132812 C 328.730469 276.4375 328.816406 275.730469 328.816406 275.019531 C 328.816406 275.007812 328.8125 274.988281 328.8125 274.972656 L 328.8125 99.878906 C 328.8125 99.863281 328.816406 99.84375 328.816406 99.832031 C 328.816406 99.121094 328.730469 98.414062 328.601562 97.71875 C 328.574219 97.554688 328.542969 97.390625 328.507812 97.226562 C 328.355469 96.578125 328.167969 95.933594 327.914062 95.308594 C 327.871094 95.214844 327.820312 95.136719 327.777344 95.042969 C 327.539062 94.496094 327.253906 93.976562 326.929688 93.476562 C 326.851562 93.347656 326.769531 93.21875 326.679688 93.089844 C 326.289062 92.535156 325.867188 92.003906 325.382812 91.519531 C 325.355469 91.488281 325.332031 91.472656 325.300781 91.449219 C 324.859375 91.007812 324.367188 90.613281 323.847656 90.246094 C 323.691406 90.132812 323.53125 90.027344 323.363281 89.921875 C 323.21875 89.828125 323.089844 89.71875 322.929688 89.628906 L 247.109375 45.832031 L 171.28125 2.027344 C 167.644531 -0.078125 163.164062 -0.078125 159.527344 2.027344 " fill-opacity="1" fill-rule="nonzero"/></g></g></g></g></svg>